<?xml version="1.0" encoding="UTF-8" standalone="no"?>
<svg
   xmlns:dc="http://purl.org/dc/elements/1.1/"
   xmlns:cc="http://creativecommons.org/ns#"
   xmlns:rdf="http://www.w3.org/1999/02/22-rdf-syntax-ns#"
   xmlns:svg="http://www.w3.org/2000/svg"
   xmlns="http://www.w3.org/2000/svg"
   xmlns:sodipodi="http://sodipodi.sourceforge.net/DTD/sodipodi-0.dtd"
   xmlns:inkscape="http://www.inkscape.org/namespaces/inkscape"
   width="210mm"
   height="297mm"
   viewBox="0 0 210 297"
   version="1.1"
   id="svg2295"
   inkscape:version="1.0.2-2 (e86c870879, 2021-01-15)"
   sodipodi:docname="desenho3.svg"
   inkscape:export-filename="C:\Users\Giovanna Brizola\Pictures\desenho\desenho3.png"
   inkscape:export-xdpi="96"
   inkscape:export-ydpi="96">
  <defs
     id="defs2289" />
  <sodipodi:namedview
     id="base"
     pagecolor="#ffffff"
     bordercolor="#666666"
     borderopacity="1.0"
     inkscape:pageopacity="0.0"
     inkscape:pageshadow="2"
     inkscape:zoom="0.7"
     inkscape:cx="-353.9971"
     inkscape:cy="541.56665"
     inkscape:document-units="mm"
     inkscape:current-layer="layer1"
     inkscape:document-rotation="0"
     showgrid="false"
     inkscape:window-width="1920"
     inkscape:window-height="1001"
     inkscape:window-x="-9"
     inkscape:window-y="-9"
     inkscape:window-maximized="1" />
  <metadata
     id="metadata2292">
    <rdf:RDF>
      <cc:Work
         rdf:about="">
        <dc:format>image/svg+xml</dc:format>
        <dc:type
           rdf:resource="http://purl.org/dc/dcmitype/StillImage" />
        <dc:title></dc:title>
      </cc:Work>
    </rdf:RDF>
  </metadata>
  <g
     inkscape:label="Layer 1"
     inkscape:groupmode="layer"
     id="layer1">
    <circle
       id="path2914"
       style="fill:#680a04;stroke:none;stroke-width:0.264583"
       cx="-187.47618"
       cy="-26.836309"
       r="0" />
    <path
       style="fill:none;stroke:#680a04;stroke-width:0;stroke-miterlimit:4;stroke-dasharray:none;stroke-opacity:1"
       d="m -739.0437,138.12359 c -11.22581,-3.58933 -19.49298,-8.70729 -26.70687,-16.53343 -18.38978,-19.95056 -18.66007,-45.521522 -0.68639,-64.935243 22.59333,-24.4035 61.4556,-27.667587 88.28027,-7.414765 18.62843,14.064606 25.57705,37.98424 16.79906,57.828358 -3.57102,8.07287 -14.47071,19.95803 -22.7562,24.81365 -15.34636,8.99356 -38.2007,11.5904 -54.92987,6.24143 z"
       id="path3516"
       transform="scale(0.26458333)" />
    <path
       style="fill:none;stroke:#680a04;stroke-width:0;stroke-miterlimit:4;stroke-dasharray:none;stroke-opacity:1"
       d="m -739.0437,138.12359 c -11.22581,-3.58933 -19.49298,-8.70729 -26.70687,-16.53343 -18.38978,-19.95056 -18.66007,-45.521522 -0.68639,-64.935243 22.59333,-24.4035 61.4556,-27.667587 88.28027,-7.414765 18.62843,14.064606 25.57705,37.98424 16.79906,57.828358 -3.57102,8.07287 -14.47071,19.95803 -22.7562,24.81365 -15.34636,8.99356 -38.2007,11.5904 -54.92987,6.24143 z"
       id="path3518"
       transform="scale(0.26458333)" />
    <path
       style="fill:none;stroke:#680a04;stroke-width:0;stroke-miterlimit:4;stroke-dasharray:none;stroke-opacity:1"
       d=""
       id="path3520"
       transform="scale(0.26458333)" />
    <path
       style="fill:none;stroke:#680a04;stroke-width:0;stroke-miterlimit:4;stroke-dasharray:none;stroke-opacity:1"
       d=""
       id="path3522"
       transform="scale(0.26458333)" />
    <path
       style="fill:none;stroke:#680a04;stroke-width:0;stroke-miterlimit:4;stroke-dasharray:none;stroke-opacity:1"
       d=""
       id="path3524"
       transform="scale(0.26458333)" />
    <path
       style="fill:none;stroke:#680a04;stroke-width:0;stroke-miterlimit:4;stroke-dasharray:none;stroke-opacity:1"
       d=""
       id="path3526"
       transform="scale(0.26458333)" />
    <path
       style="fill:none;stroke:#680a04;stroke-width:0;stroke-miterlimit:4;stroke-dasharray:none;stroke-opacity:1"
       d=""
       id="path3528"
       transform="scale(0.26458333)" />
    <path
       style="fill:none;stroke:#680a04;stroke-width:0;stroke-miterlimit:4;stroke-dasharray:none;stroke-opacity:1"
       d=""
       id="path3530"
       transform="scale(0.26458333)" />
    <path
       style="fill:none;stroke:#680a04;stroke-width:0;stroke-miterlimit:4;stroke-dasharray:none;stroke-opacity:1"
       d="m -156.48214,-12.85119 c 0,41.955356 -0.75595,-2.645834 -0.75595,-2.645834 l 30.23809,0.377977 1.13393,44.601189 -31.37202,0.755952 V 28.72619 l -0.37798,-0.755951 z"
       id="path3532" />
    <ellipse
       style="fill:none;stroke:#680a04;stroke-width:0;stroke-miterlimit:4;stroke-dasharray:none;stroke-opacity:1"
       id="path3534"
       cx="85.422615"
       cy="143.81993"
       rx="10.205358"
       ry="20.977678" />
    <ellipse
       style="fill:none;stroke:#680a04;stroke-width:0;stroke-miterlimit:4;stroke-dasharray:none;stroke-opacity:1"
       id="path3536"
       cx="116.98363"
       cy="164.23065"
       rx="22.489584"
       ry="11.528275" />
    <circle
       id="path3759"
       style="fill:#000000;stroke:#0a0a04;stroke-width:0.264583"
       cx="2.3051996"
       cy="105.3376"
       r="0" />
    <path
       style="fill:#ececec;stroke:#680a04;stroke-width:0.810001;stroke-miterlimit:4;stroke-dasharray:none;stroke-opacity:1"
       d="m 92.776438,132.75335 h -7.37054"
       id="path3581-0-2" />
    <path
       style="fill:#ececec;stroke:#680a04;stroke-width:0.810001;stroke-miterlimit:4;stroke-dasharray:none;stroke-opacity:1"
       d="m 92.870928,134.83222 -7.18155,-0.0945"
       id="path3583-4-9" />
    <path
       style="fill:#ececec;stroke:#680a04;stroke-width:0.810001;stroke-miterlimit:4;stroke-dasharray:none;stroke-opacity:1"
       d="m 110.11883,131.57216 7.08705,-0.0945"
       id="path3575-6-9" />
    <path
       style="fill:#ececec;stroke:#680a04;stroke-width:0.810001;stroke-miterlimit:4;stroke-dasharray:none;stroke-opacity:1"
       d="m 110.11883,131.57216 7.08705,-0.0945"
       id="path3577-5-1" />
    <path
       style="fill:#ececec;stroke:#680a04;stroke-width:0.810001;stroke-miterlimit:4;stroke-dasharray:none;stroke-opacity:1"
       d="m 110.02433,133.65103 6.89807,-0.0945"
       id="path3579-3-2" />
    <path
       id="path3542-2-2"
       style="fill:#ffff00;stroke:#0e0a04;stroke-width:0.545133;stroke-miterlimit:4;stroke-dasharray:none;stroke-opacity:1"
       d="m 120.88464,151.93175 c -0.21905,18.40667 -6.58487,23.56307 -17.31056,24.8984 -6.891492,0.85798 -17.028042,-4.19476 -18.404992,-27.46104 -1.28733,-21.75204 4.38707,-30.13988 15.177662,-31.18222 15.99704,-1.54525 20.80257,11.50488 20.53789,33.74486 z"
       sodipodi:nodetypes="sssss" />
    <ellipse
       style="fill:#ececec;stroke:#080a04;stroke-width:1.86055;stroke-miterlimit:4;stroke-dasharray:none;stroke-opacity:1"
       id="path3545-0-4"
       cx="102.65373"
       cy="134.40697"
       rx="7.6794839"
       ry="7.2542601" />
    <path
       style="fill:#000000;stroke:#080a04;stroke-width:0.810001;stroke-miterlimit:4;stroke-dasharray:none;stroke-opacity:1"
       d="m 100.50854,110.61957 c 0.74506,2.22725 1.12903,4.51611 1.70089,6.80357"
       id="path3567-7-5" />
    <path
       style="fill:#ececec;stroke:#020a04;stroke-width:0.810001;stroke-miterlimit:4;stroke-dasharray:none;stroke-opacity:1"
       d="m 103.05988,109.20216 c -1.07036,2.71801 -1.06897,5.38009 -0.85045,8.22098"
       id="path3569-3-0" />
    <path
       style="fill:#ececec;stroke:#050a04;stroke-width:0.810001;stroke-miterlimit:4;stroke-dasharray:none;stroke-opacity:1"
       d="m 104.85527,111.28103 c -1.44357,1.43375 -2.49708,4.20827 -2.64584,6.14211"
       id="path3571-1-8" />
    <path
       style="fill:#ececec;stroke:#040a04;stroke-width:0.810001;stroke-miterlimit:4;stroke-dasharray:none;stroke-opacity:1"
       d="m 99.280118,112.50945 c 1.032792,0.79614 2.763672,4.08545 2.929312,4.91369"
       id="path3573-4-5" />
    <ellipse
       style="fill:#000000;stroke:#0a0a04;stroke-width:1.41;stroke-miterlimit:4;stroke-dasharray:none;stroke-opacity:1"
       id="path3621-6-6"
       cx="102.65372"
       cy="134.54872"
       rx="1.984375"
       ry="2.2206101" />
    <path
       style="fill:#ececec;stroke:#080a04;stroke-width:2.52908;stroke-miterlimit:4;stroke-dasharray:none;stroke-opacity:1"
       d="m 110.3296,134.729 9.31532,-0.0574"
       id="path3579-6-4-6" />
    <path
       style="fill:#050505;fill-opacity:1;stroke:#000a04;stroke-width:2.52735;stroke-miterlimit:4;stroke-dasharray:none;stroke-opacity:1"
       d="m 95.218848,134.73934 h -9.75985"
       id="path3581-1-2-8" />
    <path
       style="fill:#000000;fill-opacity:1;stroke:#0a0a04;stroke-width:0;stroke-miterlimit:4;stroke-dasharray:none;stroke-opacity:1"
       d="m 87.568448,136.29563 c 0.0919,-0.0239 0.21951,-0.0224 0.28348,0.004 0.064,0.0259 -0.0112,0.0455 -0.16716,0.0436 -0.15591,-0.002 -0.20826,-0.0231 -0.11632,-0.0471 z"
       id="path3735-0-9" />
    <path
       style="fill:#03a1ea;fill-opacity:1;stroke:#0a0a04;stroke-width:0.336;stroke-miterlimit:4;stroke-dasharray:none;stroke-opacity:1"
       d="m 90.602838,157.85945 0.0945,-6.39894 h 12.262252 12.26226 v 6.39894 6.39896 H 102.95959 90.697338 Z"
       id="path3853-6-6"
       sodipodi:nodetypes="ccccccccc" />
    <path
       style="fill:#03a1ea;fill-opacity:1;stroke:#0a0a04;stroke-width:0.113488;stroke-miterlimit:4;stroke-dasharray:none;stroke-opacity:1"
       d="m 89.287068,152.76398 c -1.43616,-0.519 -2.98132,-1.07056 -3.43371,-1.22569 -0.4524,-0.15514 -0.83601,-0.34193 -0.85249,-0.41509 -0.0316,-0.1425 0.17983,-1.39582 0.2503,-1.48048 0.0233,-0.0279 1.4999,0.47344 3.28148,1.11407 1.78159,0.64061 3.19445,1.19828 3.13972,1.23923 -0.0548,0.0409 -0.0263,0.44281 0.0631,0.89303 l 0.16277,0.81857 z"
       id="path3857-4-3"
       inkscape:transform-center-x="0.23095564"
       inkscape:transform-center-y="1.2449655" />
    <path
       style="fill:#03a1ea;fill-opacity:1;stroke:#0a0a04;stroke-width:0;stroke-miterlimit:4;stroke-dasharray:none;stroke-opacity:1"
       d="m 86.495248,159.87313 c 33.545382,-0.28349 33.639882,-0.18899 33.639882,-0.18899 l -1.41741,6.04762 -2.92932,5.48065 -4.91369,3.87426 -5.29167,1.13393 -3.68526,0.66145 -5.575152,-1.41741 -3.77977,-2.83482 -2.64583,-3.59077 z"
       id="path3861-0-6" />
    <path
       style="fill:#03a1ea;fill-opacity:1;stroke:#0a0a04;stroke-width:0.11136;stroke-miterlimit:4;stroke-dasharray:none;stroke-opacity:1"
       d="m 118.69629,150.61627 c -1.3579,0.52853 -2.81888,1.0902 -3.24663,1.24818 -0.42774,0.15798 -0.79045,0.3482 -0.80603,0.4227 -0.0299,0.14512 0.17003,1.42143 0.23666,1.50763 0.022,0.0284 1.41818,-0.48212 3.10269,-1.1345 1.68452,-0.65236 3.02041,-1.22025 2.96865,-1.26196 -0.0518,-0.0417 -0.0249,-0.45094 0.0597,-0.90942 l 0.1539,-0.83357 z"
       id="path3857-4-1-9"
       inkscape:transform-center-x="0.2183496"
       inkscape:transform-center-y="-1.2678019" />
    <path
       style="fill:#03a1ea;fill-opacity:1;stroke:#0a0a04;stroke-width:0.1;stroke-miterlimit:4;stroke-dasharray:none;stroke-opacity:1"
       d="m 115.24144,159.67165 4.89369,0.0125 z"
       id="path3991-9"
       sodipodi:nodetypes="ccc" />
    <path
       style="fill:#03a1ea;fill-opacity:1;stroke:#0a0a04;stroke-width:0.1;stroke-miterlimit:4;stroke-dasharray:none;stroke-opacity:1"
       d="m 86.495248,159.87313 3.98863,-0.11963 z"
       id="path3993-0" />
    <path
       id="rect3997-7"
       style="fill:#03a1ea;fill-opacity:1;stroke:#0a0a04;stroke-width:0.4;stroke-miterlimit:4;stroke-dasharray:none;stroke-opacity:1"
       d="m 99.460808,155.31227 h 7.276042 c 0.0136,1.42646 0.14414,2.93091 -0.56696,3.87425 -1.80212,1.28712 -3.71018,1.51474 -5.76414,0.28348 -1.753852,-1.79701 -0.756862,-2.80808 -0.944942,-4.15773 z"
       sodipodi:nodetypes="ccccc" />
    <ellipse
       style="fill:#000000;fill-opacity:1;stroke:#0a0a04;stroke-width:0.136028;stroke-miterlimit:4;stroke-dasharray:none;stroke-opacity:1"
       id="path4003-1"
       cx="115.76103"
       cy="152.66643"
       rx="0.36271507"
       ry="0.40996209" />
    <ellipse
       style="fill:#000000;fill-opacity:1;stroke:#0a0a04;stroke-width:0.136028;stroke-miterlimit:4;stroke-dasharray:none;stroke-opacity:1"
       id="path4003-7-4"
       cx="90.767365"
       cy="152.43021"
       rx="0.40996209"
       ry="0.36271507" />
    <path
       style="fill:#000000;fill-opacity:1;stroke:#0a0a04;stroke-width:0;stroke-miterlimit:4;stroke-dasharray:none;stroke-opacity:1"
       id="path4091-0"
       d="m 114.99579,159.67596 c 0.003,0.231 0.002,0.46201 0.002,0.69301 -0.0279,0.26297 0.0705,0.51918 0.12945,0.77766 0.0339,0.34386 0.17172,0.67721 0.27074,1.01448 0.0768,0.33711 0.23079,0.65995 0.40732,0.98029 0.23067,0.35692 0.46846,0.71327 0.74587,1.05669 0.18281,0.26255 0.48945,0.47162 0.79045,0.68027 0.25488,0.16305 0.48631,0.33959 0.7523,0.49583 0.17775,0.0959 0.37376,0.17552 0.5727,0.2521 0,0 0.21179,-0.22168 0.21179,-0.22168 v 0 c -0.17559,-0.0678 -0.34864,-0.1381 -0.50772,-0.22116 -0.25858,-0.15082 -0.48138,-0.32295 -0.72887,-0.48057 -0.27771,-0.19091 -0.56354,-0.38106 -0.73291,-0.62184 -0.27065,-0.33238 -0.49951,-0.67831 -0.72172,-1.02468 -0.17019,-0.30795 -0.31997,-0.61784 -0.3926,-0.94225 -0.0981,-0.33389 -0.23555,-0.6639 -0.26544,-1.00457 -0.0565,-0.24626 -0.14971,-0.49018 -0.12399,-0.74057 -4e-5,-0.231 -8.3e-4,-0.46201 0.002,-0.69301 0,0 -0.41235,0 -0.41235,0 z" />
    <path
       style="fill:#ffff00;fill-opacity:1;stroke:#0a0a04;stroke-width:0.4;stroke-miterlimit:4;stroke-dasharray:none;stroke-opacity:1"
       d="m 96.625988,146.14636 c 2.88932,-2.2581 10.058932,-2.98125 12.945692,-0.0945"
       id="path4125-4" />
    <path
       style="fill:#ffff00;fill-opacity:1;stroke:#0a0a04;stroke-width:0.4;stroke-miterlimit:4;stroke-dasharray:none;stroke-opacity:1"
       d="m 84.933648,151.01271 c -1.422122,1.62488 -6.047486,5.92824 -4.127628,8.53262 1.126608,1.5283 4.156226,2.34807 5.689799,3.10397"
       id="path4308" />
    <path
       style="fill:#ffff00;fill-opacity:1;stroke:#0a0a04;stroke-width:0.385734;stroke-miterlimit:4;stroke-dasharray:none;stroke-opacity:1"
       d="m 121.85362,151.28081 c 1.40573,1.52866 5.97778,5.5772 4.08005,8.02737 -1.11362,1.4378 -4.10832,2.20903 -5.62422,2.92017"
       id="path4308-9" />
    <path
       style="fill:#ffffff;fill-opacity:1;stroke:#0a0a04;stroke-width:0;stroke-miterlimit:4;stroke-dasharray:none;stroke-opacity:1"
       id="path4386"
       d="m -154.38174,-10.04097 c 3.97188,-6.498685 8.09214,-12.925632 12.72449,-18.978927 2.46975,-3.227321 3.19012,-3.961611 5.73728,-6.867982 2.08907,-2.406994 4.63082,-4.178578 7.3921,-5.699345 0,0 -0.12334,-0.223401 -0.12334,-0.223401 v 0 c -2.78314,1.540121 -5.34523,3.333086 -7.44982,5.764284 -2.54846,2.915936 -3.27021,3.654708 -5.74258,6.889835 -4.63248,6.06165 -8.75348,12.494945 -12.74845,18.987296 0,0 0.21032,0.12824 0.21032,0.12824 z" />
    <path
       style="fill:#03a1ea;fill-opacity:1;stroke:#0a0a04;stroke-width:0.317411;stroke-miterlimit:4;stroke-dasharray:none;stroke-opacity:1"
       d="m 90.484633,159.75365 c 0.507205,1.87043 -1.743197,4.80793 -3.049417,4.59349"
       id="path4404" />
    <path
       style="fill:#03a1ea;fill-opacity:1;stroke:#0a0a04;stroke-width:0.4;stroke-miterlimit:4;stroke-dasharray:none;stroke-opacity:1"
       d="m 87.759643,163.93271 0.150339,0.3842"
       id="path4408" />
    <path
       style="fill:#03a1ea;fill-opacity:1;stroke:#0a0a04;stroke-width:0.4;stroke-miterlimit:4;stroke-dasharray:none;stroke-opacity:1"
       d="m 87.909982,164.31691 c -0.102624,-0.0958 -0.307162,-0.93308 -0.150339,-0.3842"
       id="path4414" />
    <path
       style="fill:#ffffff;fill-opacity:1;stroke:#0a0a04;stroke-width:0.440829;stroke-miterlimit:4;stroke-dasharray:none;stroke-opacity:1"
       d="m 121.07061,155.16292 c 2.06208,0.75165 2.19901,2.93997 -0.48692,2.93997"
       id="path4456" />
    <path
       style="fill:#ffffff;fill-opacity:1;stroke:#0a0a04;stroke-width:0.4;stroke-miterlimit:4;stroke-dasharray:none;stroke-opacity:1"
       d="m 121.85362,151.28081 c -0.60919,-0.55996 -0.74809,-0.57095 -0.68838,-1.62548"
       id="path4458" />
    <path
       style="fill:#ffffff;fill-opacity:1;stroke:#0a0a04;stroke-width:0.437817;stroke-miterlimit:4;stroke-dasharray:none;stroke-opacity:1"
       d="m 85.37078,155.35671 c -2.034002,0.75165 -2.16906,2.93997 0.480293,2.93997"
       id="path4456-0" />
    <path
       style="fill:#03a1ea;fill-opacity:1;stroke:#0a0a04;stroke-width:0.4;stroke-miterlimit:4;stroke-dasharray:none;stroke-opacity:1"
       d="m 109.34925,175.69046 c 0,0.50113 0,1.00226 0,1.50339"
       id="path4630" />
    <path
       style="fill:#03a1ea;fill-opacity:1;stroke:#0a0a04;stroke-width:0.4;stroke-miterlimit:4;stroke-dasharray:none;stroke-opacity:1"
       d="m 115.12895,172.24936 c 0.22511,1.4747 0.20045,3.00892 0.20045,4.51017"
       id="path4636" />
    <path
       style="fill:#03a1ea;fill-opacity:1;stroke:#0a0a04;stroke-width:0.4;stroke-miterlimit:4;stroke-dasharray:none;stroke-opacity:1"
       d="m 109.34925,177.19385 c 0.17618,-0.12864 0.20163,0.0343 0.33408,0.13363 1.47495,1.10622 4.06728,-0.0416 5.64607,-0.56795"
       id="path4638" />
    <path
       style="fill:#1a1a1a;fill-opacity:1;stroke:#0a0a04;stroke-width:0.4;stroke-miterlimit:4;stroke-dasharray:none;stroke-opacity:1"
       d="m 109.34925,177.19385 c 0.74841,0.86306 1.51917,1.61151 2.50565,2.10475 0.93428,0.46714 5.26827,1.07937 6.04697,0.30068 0.95227,-0.95227 -1.07364,-1.57478 -1.63703,-2.13816 -0.0564,-0.0564 -1.37434,-0.81129 -0.93544,-0.70159"
       id="path4640" />
    <path
       style="fill:#03a1ea;fill-opacity:1;stroke:#0a0a04;stroke-width:0.367427;stroke-miterlimit:4;stroke-dasharray:none;stroke-opacity:1"
       d="m 97.403946,176.082 c 0,0.50274 0,1.00548 0,1.50822"
       id="path4630-4" />
    <path
       style="fill:#03a1ea;fill-opacity:1;stroke:#0a0a04;stroke-width:0.367427;stroke-miterlimit:4;stroke-dasharray:none;stroke-opacity:1"
       d="m 92.542858,172.62982 c -0.189336,1.47945 -0.168595,3.0186 -0.168595,4.52468"
       id="path4636-6" />
    <path
       style="fill:#03a1ea;fill-opacity:1;stroke:#0a0a04;stroke-width:0.367427;stroke-miterlimit:4;stroke-dasharray:none;stroke-opacity:1"
       d="m 97.403946,177.59022 c -0.14818,-0.12905 -0.169589,0.0344 -0.280988,0.13406 -1.240526,1.10978 -3.420836,-0.0417 -4.748695,-0.56978"
       id="path4638-8" />
    <path
       style="fill:#1a1a1a;fill-opacity:1;stroke:#0a0a04;stroke-width:0.367427;stroke-miterlimit:4;stroke-dasharray:none;stroke-opacity:1"
       d="m 97.403946,177.59022 c -0.629467,0.86584 -1.277722,1.6167 -2.10741,2.11152 -0.785785,0.46865 -4.430944,1.08285 -5.085879,0.30165 -0.800916,-0.95533 0.903,-1.57984 1.376841,-2.14504 0.04744,-0.0566 1.155905,-0.8139 0.786765,-0.70385"
       id="path4640-1" />
    <path
       style="fill:#ffff00;fill-opacity:1;stroke:#0a0a04;stroke-width:0.0714285;stroke-miterlimit:4;stroke-dasharray:none;stroke-opacity:1"
       d="m 109.69888,177.02876 c -0.12309,-0.10587 -0.12412,-0.11222 -0.11097,-0.68274 l 0.0133,-0.57587 0.50897,-0.2001 c 1.57195,-0.61802 3.13713,-1.54668 4.35747,-2.58542 l 0.47247,-0.40216 0.0309,0.19614 c 0.0675,0.42837 0.14017,2.1341 0.12592,2.95562 l -0.0151,0.86961 -0.25986,0.0916 c -0.20861,0.0736 -0.72717,0.12601 -2.62936,0.2659 l -2.3695,0.17424 z"
       id="path4703" />
    <path
       style="fill:#ffff00;fill-opacity:1;stroke:#0a0a04;stroke-width:0.0714285;stroke-miterlimit:4;stroke-dasharray:none;stroke-opacity:1"
       d="m 94.907354,177.35713 c -1.520859,-0.1331 -1.933704,-0.18385 -2.114304,-0.2599 l -0.224425,-0.0945 5.3e-4,-0.76194 c 7.93e-4,-0.85502 0.0797,-2.80655 0.1231,-3.04104 l 0.02831,-0.15298 0.492739,0.46695 c 0.975572,0.92449 2.089272,1.71267 3.256526,2.30467 l 0.727877,0.36916 5.29e-4,0.57054 c 5.29e-4,0.53562 -0.0062,0.57682 -0.108837,0.67327 -0.06014,0.0565 -0.150503,0.10013 -0.2008,0.0969 -0.0503,-0.003 -0.941895,-0.0802 -1.981329,-0.17118 z"
       id="path4705" />
    <path
       style="fill:#ffff00;fill-opacity:1;stroke:#0a0a04;stroke-width:0;stroke-miterlimit:4;stroke-dasharray:none;stroke-opacity:1"
       d="m 121.18219,154.95959 c -0.0846,-0.018 -0.0876,-0.0625 -0.0596,-0.90014 0.0161,-0.48466 0.0431,-1.3751 0.06,-1.97875 l 0.0306,-1.09755 0.27709,0.26802 c 0.15997,0.15474 0.27732,0.30911 0.27764,0.36522 10e-4,0.16524 -0.42829,3.21104 -0.46348,3.28882 -0.0184,0.0408 -0.0727,0.0649 -0.12217,0.0544 z"
       id="path4711" />
  </g>
</svg>
