<?xml version="1.0" encoding="UTF-8" standalone="no"?>
<svg
   xmlns:dc="http://purl.org/dc/elements/1.1/"
   xmlns:cc="http://creativecommons.org/ns#"
   xmlns:rdf="http://www.w3.org/1999/02/22-rdf-syntax-ns#"
   xmlns:svg="http://www.w3.org/2000/svg"
   xmlns="http://www.w3.org/2000/svg"
   xmlns:sodipodi="http://sodipodi.sourceforge.net/DTD/sodipodi-0.dtd"
   xmlns:inkscape="http://www.inkscape.org/namespaces/inkscape"
   width="210mm"
   height="297mm"
   viewBox="0 0 210 297"
   version="1.1"
   id="svg8"
   inkscape:version="1.0.2-2 (e86c870879, 2021-01-15)"
   sodipodi:docname="desenho1.svg">
  <defs
     id="defs2" />
  <sodipodi:namedview
     id="base"
     pagecolor="#ffffff"
     bordercolor="#666666"
     borderopacity="1.0"
     inkscape:pageopacity="0.0"
     inkscape:pageshadow="2"
     inkscape:zoom="0.80745968"
     inkscape:cx="568.9304"
     inkscape:cy="444.95473"
     inkscape:document-units="mm"
     inkscape:current-layer="layer1"
     inkscape:document-rotation="0"
     showgrid="false"
     inkscape:snap-to-guides="false"
     inkscape:snap-page="false"
     inkscape:snap-grids="false"
     inkscape:window-width="1920"
     inkscape:window-height="1001"
     inkscape:window-x="-9"
     inkscape:window-y="-9"
     inkscape:window-maximized="1" />
  <metadata
     id="metadata5">
    <rdf:RDF>
      <cc:Work
         rdf:about="">
        <dc:format>image/svg+xml</dc:format>
        <dc:type
           rdf:resource="http://purl.org/dc/dcmitype/StillImage" />
        <dc:title></dc:title>
      </cc:Work>
    </rdf:RDF>
  </metadata>
  <g
     inkscape:label="Layer 1"
     id="layer1"
     style="fill:#80d8e2;fill-opacity:1">
    <ellipse
       style="fill:#80d8e2;fill-opacity:1;stroke:#0a0a09;stroke-width:2.37364"
       id="path73"
       cx="91.382462"
       cy="130.82506"
       rx="52.073895"
       ry="52.887505"
       inkscape:label="corpo" />
    <ellipse
       style="fill:#070a0f;fill-opacity:1;stroke:#0a0a09;stroke-width:2.2"
       id="path908"
       cx="79.897476"
       cy="120.43879"
       rx="5.3453903"
       ry="5.6126599" />
    <ellipse
       style="fill:#0a0a09;fill-opacity:1;stroke:#0a0a09;stroke-width:2.2"
       id="path910"
       cx="103.61712"
       cy="120.19176"
       rx="5.3453903"
       ry="5.7462945" />
    <path
       style="fill:#000000;fill-opacity:0;stroke:#080a04;stroke-width:0.7;stroke-miterlimit:4;stroke-dasharray:none;stroke-opacity:1"
       d="m 84.433888,138.35248 c -1.569615,1.1397 13.607142,0 13.607142,0 l -3.77976,-7.55953 c -1.571439,-4.00682 -7.289848,0.93931 -9.827382,7.55953 z"
       id="path1413"
       sodipodi:nodetypes="cccc" />
    <path
       style="fill:#28a4b6;fill-opacity:1;stroke:#080a04;stroke-width:0.384955;stroke-miterlimit:4;stroke-dasharray:none;stroke-opacity:1"
       d="m 97.314107,107.30954 c 22.135403,0.44815 25.433993,9.4139 24.709923,8.1284 0.68294,-3.23775 3.52249,-8.12892 2.04376,-9.70926 6.18301,-3.27738 -20.8883,-9.815959 -24.658241,-9.344153 -4.206006,17.920133 -1.435843,7.190753 -2.095403,10.925013 z"
       id="path1474"
       sodipodi:nodetypes="cccccc" />
    <path
       style="fill:#27a4b6;fill-opacity:1;stroke:#080a04;stroke-width:0.336807;stroke-miterlimit:4;stroke-dasharray:none;stroke-opacity:1"
       d="m 85.391482,106.84911 c -20.11237,2.68529 -21.78156,10.40549 -21.313298,9.27228 -1.105745,-2.5918 -4.424226,-6.31794 -3.311995,-7.77266 -6.199077,-3.20223 18.799999,-12.789858 21.084766,-10.266903 6.508407,14.300373 2.381982,5.764633 3.540492,8.767293 z"
       id="path1474-6"
       sodipodi:nodetypes="cccccc"
       inkscape:label="path1474-6" />
    <path
       style="fill:#9c878f;fill-opacity:1;stroke:#080a04;stroke-width:0.660883;stroke-miterlimit:4;stroke-dasharray:none;stroke-opacity:1"
       d="m 127.49095,87.932795 c 13.2827,0.792309 2.73591,-11.473597 -0.3855,-14.548269 -0.84698,-0.834295 0.79002,-1.087303 1.45651,-1.017542 17.16216,1.796325 26.37175,23.86954 2.83935,24.86705"
       id="path4805" />
    <path
       style="fill:#9c878f;fill-opacity:1;stroke:#080a04;stroke-width:0.744739;stroke-miterlimit:4;stroke-dasharray:none;stroke-opacity:1"
       d="M 51.587068,91.396732 C 38.523814,89.301515 50.685195,76.226635 54.199061,73.060613 55.15253,72.201532 53.596479,71.499191 52.936388,71.432061 35.938999,69.703439 23.572862,95.511676 46.347358,102.26493"
       id="path4805-3" />
  </g>
  <path
     style="fill:#008080;fill-opacity:0.671587;stroke:#080a04;stroke-width:0.569;stroke-miterlimit:4;stroke-dasharray:none;stroke-opacity:1"
     d="m 63.896874,175.55104 c 4.230143,3.02513 9.788903,4.06295 14.816667,6.21771"
     id="path4713" />
  <path
     style="fill:#b0d5d7;fill-opacity:1;stroke:#080a04;stroke-width:0.569;stroke-miterlimit:4;stroke-dasharray:none;stroke-opacity:1"
     d="m 111.283,181.55026 c 5.69581,5.09129 16.23706,2.33728 9.36139,-5.48104"
     id="path4779" />
  <path
     style="fill:#a0cfd3;fill-opacity:1;stroke:#080a04;stroke-width:0.561652;stroke-miterlimit:4;stroke-dasharray:none;stroke-opacity:1"
     d="m 72.934181,181.38551 c -5.617508,4.87769 -15.842047,1.72629 -9.037307,-5.83447"
     id="path4779-1" />
</svg>
